<svg xmlns="http://www.w3.org/2000/svg" viewBox="0 0 50 50"><defs><style>.cls-1{isolation:isolate;}.cls-2{fill:#9d9d9d;fill-rule:evenodd;}.cls-3{fill:#b2b2b2;}</style></defs><title>Ресурс 2</title><g id="Слой_2" data-name="Слой 2"><g id="Index" class="cls-1"><g id="Post"><g id="Share"><g id="Social_media" data-name="Social media"><g id="Facebook"><g id="Facebook-2" data-name="Facebook"><path class="cls-2" d="M26.63,20.87V18.8c0-1.08.09-1.66,1.47-1.66H30V13H27c-3.55,0-4.79,2-4.79,5.39v2.48H20V25h2.21V37h4.42V25h3L30,20.87Z"/></g><g id="Прямоугольник"><path class="cls-3" d="M25,1A24,24,0,1,1,1,25,24,24,0,0,1,25,1m0-1A25,25,0,1,0,50,25,25,25,0,0,0,25,0Z"/></g></g></g></g></g></g></g></svg>